name D:\school\WTK\thesis\model\3dpredictsim\Results\MidTarsalJoint\Fal_s1_bCst_PF_Natali2010_ls150_MT_k300_MTP_Mu1_np_ig23.mot
datacolumns 128
datarows 4
range 0.56396130 0.59779898
endheader
time	pelvis_tilt	pelvis_list	pelvis_rotation	pelvis_tx	pelvis_ty	pelvis_tz	hip_flexion_l	hip_adduction_l	hip_rotation_l	hip_flexion_r	hip_adduction_r	hip_rotation_r	knee_angle_l	knee_angle_r	ankle_angle_l	ankle_angle_r	subtalar_angle_l	subtalar_angle_r	tmt_angle_l	tmt_angle_r	mtp_angle_l	mtp_angle_r	lumbar_extension	lumbar_bending	lumbar_rotation	arm_flex_l	arm_add_l	arm_rot_l	arm_flex_r	arm_add_r	arm_rot_r	elbow_flex_l	elbow_flex_r	pro_sup_l	pro_sup_r	glut_med1_l/activation	glut_med2_l/activation	glut_med3_l/activation	glut_min1_l/activation	glut_min2_l/activation	glut_min3_l/activation	semimem_l/activation	semiten_l/activation	bifemlh_l/activation	bifemsh_l/activation	sar_l/activation	add_long_l/activation	add_brev_l/activation	add_mag1_l/activation	add_mag2_l/activation	add_mag3_l/activation	tfl_l/activation	pect_l/activation	grac_l/activation	glut_max1_l/activation	glut_max2_l/activation	glut_max3_l/activation	iliacus_l/activation	psoas_l/activation	quad_fem_l/activation	gem_l/activation	peri_l/activation	rect_fem_l/activation	vas_med_l/activation	vas_int_l/activation	vas_lat_l/activation	med_gas_l/activation	lat_gas_l/activation	soleus_l/activation	tib_post_l/activation	flex_dig_l/activation	flex_hal_l/activation	tib_ant_l/activation	per_brev_l/activation	per_long_l/activation	per_tert_l/activation	ext_dig_l/activation	ext_hal_l/activation	ercspn_l/activation	intobl_l/activation	extobl_l/activation	glut_med1_r/activation	glut_med2_r/activation	glut_med3_r/activation	glut_min1_r/activation	glut_min2_r/activation	glut_min3_r/activation	semimem_r/activation	semiten_r/activation	bifemlh_r/activation	bifemsh_r/activation	sar_r/activation	add_long_r/activation	add_brev_r/activation	add_mag1_r/activation	add_mag2_r/activation	add_mag3_r/activation	tfl_r/activation	pect_r/activation	grac_r/activation	glut_max1_r/activation	glut_max2_r/activation	glut_max3_r/activation	iliacus_r/activation	psoas_r/activation	quad_fem_r/activation	gem_r/activation	peri_r/activation	rect_fem_r/activation	vas_med_r/activation	vas_int_r/activation	vas_lat_r/activation	med_gas_r/activation	lat_gas_r/activation	soleus_r/activation	tib_post_r/activation	flex_dig_r/activation	flex_hal_r/activation	tib_ant_r/activation	per_brev_r/activation	per_long_r/activation	per_tert_r/activation	ext_dig_r/activation	ext_hal_r/activation	ercspn_r/activation	intobl_r/activation	extobl_r/activation	
          0.56396130	         -2.93017641	          2.13544326	         -5.07587635	          0.70495163	          0.91965032	          0.00218804	         28.58433378	          3.44737260	         -3.43696101	        -16.53340533	         -0.60035849	          6.54172710	         -9.47918685	         -8.19076923	          4.48216670	         -2.13953520	         -3.64972718	          6.03107564	         -0.68297612	          4.35294897	          6.85949729	         14.02960604	         -2.15055254	         -0.42827829	          1.97107910	         -4.24251771	        -13.45183653	          8.33078802	          5.32836807	        -13.45697369	         17.35507882	         15.16470543	         33.46117674	         86.51662706	         86.51662706	          0.05939934	          0.05939933	          0.05000009	          0.05939937	          0.05939936	          0.05580575	          0.15651629	          0.08580303	          0.20191634	          0.06415787	          0.05000010	          0.16655329	          0.30758852	          0.10626911	          0.21465282	          0.10821295	          0.05000008	          0.05000768	          0.14680932	          0.05000067	          0.05001289	          0.14942050	          0.05681411	          0.05000024	          0.27493399	          0.27999990	          0.13650898	          0.05000017	          0.11525798	          0.11221547	          0.10269748	          0.06645635	          0.06774427	          0.06195270	          0.05000002	          0.05942085	          0.05000020	          0.52902157	          0.26439364	          0.16675513	          0.17514548	          0.42434603	          0.05000026	          0.05812132	          0.11434162	          0.09958089	          0.26975425	          0.09959052	          0.07056730	          0.28533945	          0.18763820	          0.10619074	          0.05000090	          0.05000016	          0.05000009	          0.05301929	          0.10753026	          0.08615794	          0.07056533	          0.05000108	          0.05000162	          0.05000046	          0.31494812	          0.07255453	          0.05000165	          0.05000098	          0.05000053	          0.05000050	          0.40619114	          0.65361567	          0.05000008	          0.05000023	          0.05183661	          0.24624443	          0.05000033	          0.05000035	          0.05000033	          0.27304443	          0.37681407	          0.34044710	          0.29878324	          0.32151281	          0.38186435	          0.05000003	          0.05775256	          0.10362216	          0.05000018	          0.05000006	          0.05000026	          0.05000001	          0.05000008	          0.05844642	
          0.57524053	         -2.92796846	          2.21236990	         -5.33987175	          0.72198727	          0.91884188	          0.00198584	         27.92635409	          3.81035083	         -3.19791417	        -16.43010475	         -0.88161689	          6.34270698	         -9.84330353	        -10.05757946	          3.81455118	         -2.66343380	         -4.01209739	          7.01068321	         -0.75695678	          3.47693986	          6.89383222	         15.93822961	         -1.94637487	         -0.61659698	          2.03854456	         -5.12085173	        -13.45011249	          8.09213813	          5.01267340	        -13.46835117	         17.59154855	         14.81806740	         34.64544045	         86.51662706	         86.51662706	          0.05000000	          0.05000002	          0.11261458	          0.05000003	          0.05000003	          0.05000003	          0.13174923	          0.07222560	          0.16996511	          0.05400561	          0.05940007	          0.14019798	          0.31526671	          0.33288272	          0.20700379	          0.11289234	          0.05000016	          0.07062918	          0.14525821	          0.05000217	          0.08279325	          0.13909011	          0.05000008	          0.05939952	          0.54455738	          0.23569274	          0.11490784	          0.05939959	          0.10728686	          0.11197937	          0.09165088	          0.06554293	          0.07056040	          0.05939401	          0.05939687	          0.05001826	          0.05939885	          0.52200198	          0.33584192	          0.21277355	          0.14743051	          0.35719758	          0.09687686	          0.05000000	          0.09624820	          0.08382322	          0.22706838	          0.08383133	          0.05940077	          0.24018741	          0.15794637	          0.08938715	          0.05000140	          0.05000041	          0.05000059	          0.05000007	          0.09051479	          0.16712089	          0.05939947	          0.05939964	          0.05939942	          0.05939965	          0.26511085	          0.06107447	          0.05000181	          0.05000384	          0.05000410	          0.05854197	          0.34191551	          0.61018833	          0.05837995	          0.05939842	          0.05000084	          0.20727877	          0.14032815	          0.12849511	          0.12755025	          0.22983788	          0.31718703	          0.28965182	          0.25444275	          0.31181288	          0.40444150	          0.05000001	          0.05000006	          0.12534366	          0.05000004	          0.05000001	          0.05000006	          0.06131373	          0.06859276	          0.05939950	
          0.58651975	         -2.92140266	          2.29381270	         -5.57335457	          0.73932875	          0.91806579	          0.00180663	         27.14754739	          4.06085910	         -2.92936368	        -16.26514098	         -1.16638112	          6.13279463	        -10.33799287	        -12.01336314	          3.27446695	         -3.34333482	         -4.39721577	          7.96496231	         -0.87057869	          2.45890567	          6.97899623	         17.99737635	         -1.72104649	         -0.81764105	          2.09458754	         -6.02934238	        -13.45799201	          7.90364015	          4.61103165	        -13.47690185	         17.74157357	         14.52924921	         35.82805228	         86.51662706	         86.51662706	          0.24862970	          0.25008185	          0.31136534	          0.39516399	          0.26353284	          0.25595478	          0.11090170	          0.06079690	          0.14306988	          0.05939900	          0.05000078	          0.11801307	          0.26537893	          0.28020741	          0.17424761	          0.11734510	          0.05000033	          0.05945309	          0.12227268	          0.05000033	          0.06969279	          0.11708065	          0.05000172	          0.05000032	          0.45838663	          0.19839677	          0.21548254	          0.05000023	          0.09030990	          0.09425987	          0.07714815	          0.05517145	          0.05939497	          0.05000010	          0.05000003	          0.05000009	          0.05000017	          0.57668458	          0.32833704	          0.17910433	          0.41413688	          0.43047707	          0.08154722	          0.06241777	          0.11831262	          0.07055904	          0.32079313	          0.07056589	          0.05000128	          0.34122163	          0.13295302	          0.07524257	          0.05000080	          0.05000010	          0.05000007	          0.05000028	          0.07619324	          0.14067573	          0.05000024	          0.05000035	          0.05000050	          0.05000038	          0.30897270	          0.05141128	          0.05000059	          0.05000153	          0.05000071	          0.05000032	          0.28781115	          0.58190539	          0.05000012	          0.05000057	          0.05000033	          0.17447901	          0.11812268	          0.10816210	          0.10736675	          0.19346833	          0.26699535	          0.24381731	          0.21417976	          0.26247209	          0.34044785	          0.05000002	          0.09964120	          0.14439038	          0.05000012	          0.05000007	          0.05000016	          0.05161200	          0.05773865	          0.05000013	
          0.59779898	         -2.91250014	          2.37068232	         -5.77208079	          0.75676645	          0.91735687	          0.00160087	         26.32742508	          4.28108441	         -2.65482579	        -15.99633870	         -1.44717584	          5.93923803	        -10.80292472	        -14.10524433	          2.84618287	         -4.20098753	         -4.78373038	          8.90901296	         -0.82659600	          1.33825375	          7.13685309	         20.15844065	         -1.49757303	         -1.02107592	          2.14119249	         -6.92178250	        -13.46705139	          7.76726461	          4.16053136	        -13.49117069	         17.83134895	         14.27444559	         36.98607843	         86.51662706	         86.51662706	          0.34630624	          0.34105423	          0.36088505	          0.33263335	          0.22183356	          0.22166622	          0.09933241	          0.07397007	          0.12043080	          0.05000033	          0.05000081	          0.09933869	          0.22338538	          0.23586748	          0.14667487	          0.15390876	          0.05000021	          0.05004543	          0.10292437	          0.20763123	          0.16317790	          0.14111575	          0.05000004	          0.05000005	          0.38585154	          0.16700250	          0.18138471	          0.05000004	          0.10794288	          0.11537415	          0.08265066	          0.05000002	          0.05000004	          0.05000000	          0.05000001	          0.05000088	          0.05000019	          0.65400919	          0.30945419	          0.16954698	          0.59857788	          0.45164169	          0.11932769	          0.08108490	          0.09959084	          0.05939378	          0.28141717	          0.05939956	          0.05000010	          0.28722686	          0.11191458	          0.06333621	          0.05000131	          0.05000015	          0.05000014	          0.05000009	          0.06413654	          0.14657722	          0.09478297	          0.05000546	          0.05000291	          0.05000115	          0.26504468	          0.07054227	          0.05000091	          0.05000168	          0.05000112	          0.05000097	          0.24226793	          0.52580423	          0.05000024	          0.05000066	          0.05000013	          0.14686946	          0.12031422	          0.12216400	          0.11831248	          0.16285390	          0.22474601	          0.20523565	          0.18028797	          0.22093864	          0.28657555	          0.07389936	          0.10681200	          0.14781590	          0.05000030	          0.09408617	          0.05000025	          0.07075425	          0.05000000	          0.05000001	
